<svg xmlns="http://www.w3.org/2000/svg" width="58.87" height="68" viewBox="0 0 58.87 68"><defs><style>.a{opacity:0.6;}.b{fill:#12bc67;}</style></defs><g class="a"><path class="b" d="M59.556,24.119A11.043,11.043,0,0,0,62.106,17,11.382,11.382,0,0,0,50.737,5.631a11.569,11.569,0,0,0-8.819,4.25A37.26,37.26,0,0,0,36.5,8.713V5.631h2.869a2.733,2.733,0,0,0,2.869-2.869A2.65,2.65,0,0,0,39.369,0H28.106a2.733,2.733,0,0,0-2.869,2.869,2.733,2.733,0,0,0,2.869,2.869h2.869V8.819a32.929,32.929,0,0,0-5.419,1.169,11.569,11.569,0,0,0-8.819-4.25A11.224,11.224,0,0,0,5.369,17a11.043,11.043,0,0,0,2.55,7.119A27.035,27.035,0,0,0,4.2,38.25a29.433,29.433,0,1,0,58.862,0A25.912,25.912,0,0,0,59.556,24.119Zm-8.819-12.75A5.669,5.669,0,0,1,56.369,17c0,.531-.319,1.381-.319,2.019a26.428,26.428,0,0,0-8.181-6.8A4.034,4.034,0,0,1,50.737,11.369ZM11.106,17a5.669,5.669,0,0,1,5.631-5.631,5.809,5.809,0,0,1,3.081.85,31.955,31.955,0,0,0-8.5,6.8C11.319,18.381,11.106,17.531,11.106,17ZM33.737,62.369a24.121,24.121,0,0,1,0-48.237,23.831,23.831,0,0,1,23.8,24.119A23.831,23.831,0,0,1,33.737,62.369Z" transform="translate(-4.2 0)"/><path class="b" d="M43.706,35.538h-8.5V24.169a2.869,2.869,0,0,0-5.737,0V35.538a2.869,2.869,0,1,0,0,5.737,2.869,2.869,0,1,0,5.737,0h8.5a2.869,2.869,0,1,0,0-5.737Z" transform="translate(-2.8 1.331)"/></g></svg>