<svg xmlns="http://www.w3.org/2000/svg" width="61.535" height="73.764" viewBox="0 0 61.535 73.764"><defs><style>.a{opacity:0.6;}.b{fill:#12bc67;}</style></defs><g class="a"><path class="b" d="M54.629,21.895V19.13A19.044,19.044,0,0,0,37.692,0c-5.3-.23-10.6,1.267-14.287,4.954a18.157,18.157,0,0,0-5.876,13.25v3.687A15.666,15.666,0,0,0,5.2,37.1V59A14.776,14.776,0,0,0,19.948,73.744H51.979A14.776,14.776,0,0,0,66.728,59V37.1A15.231,15.231,0,0,0,54.629,21.895ZM27.783,9.566c2.42-2.42,5.876-3.341,9.563-3.111,6.222.576,11.061,6.222,11.061,12.9v2.189H23.75V18.208A11.409,11.409,0,0,1,27.783,9.566Zm32.953,49.66a8.629,8.629,0,0,1-8.642,8.642H20.063a8.86,8.86,0,0,1-8.642-8.642V37.334a9.614,9.614,0,0,1,9.563-9.563H51.173a9.4,9.4,0,0,1,9.563,9.218Z" transform="translate(-5.2 0.02)"/><path class="b" d="M32.411,34.8A2.964,2.964,0,0,0,29.3,37.911V50.355a3.111,3.111,0,0,0,6.222,0V37.911A2.964,2.964,0,0,0,32.411,34.8Z" transform="translate(-1.532 5.32)"/></g></svg>