<svg xmlns="http://www.w3.org/2000/svg" width="69.051" height="82.312" viewBox="0 0 69.051 82.312"><defs><style>.a{opacity:0.6;}.b{fill:#12bc67;}</style></defs><g class="a"><path class="b" d="M39.761,82.437a17.45,17.45,0,0,1-3.743-.645C17.432,74.177,5.3,57.011,5.3,37.006V17.388A10.457,10.457,0,0,1,12.915,7.45L37.05.609a8.2,8.2,0,0,1,5.55,0L66.736,7.45a10.7,10.7,0,0,1,7.615,9.938V37.006A47.572,47.572,0,0,1,43.762,81.4,8.041,8.041,0,0,1,39.761,82.437ZM14.593,14.29a3.3,3.3,0,0,0-2.452,3.1V37.006A40.808,40.808,0,0,0,38.6,75.21a2.73,2.73,0,0,0,2.452,0,40.943,40.943,0,0,0,26.2-38.2V17.388A4.228,4.228,0,0,0,64.8,13.9L40.793,7.062H39.115Z" transform="translate(-5.3 -0.125)"/></g></svg>